<svg xmlns="http://www.w3.org/2000/svg" viewBox="0 0 1600 900" preserveAspectRatio="xMidYMid slice">
  <defs>
    <linearGradient id="fond2" x1="0" y1="0" x2="1" y2="1">
      <stop offset="0" stop-color="#00231b"/>
      <stop offset="0.55" stop-color="#004D3A"/>
      <stop offset="1" stop-color="#015a42"/>
    </linearGradient>
    <radialGradient id="halo2" cx="0.25" cy="0.75" r="0.6">
      <stop offset="0" stop-color="#0aa876" stop-opacity="0.4"/>
      <stop offset="1" stop-color="#0aa876" stop-opacity="0"/>
    </radialGradient>
  </defs>
  <rect width="1600" height="900" fill="url(#fond2)"/>
  <rect width="1600" height="900" fill="url(#halo2)"/>

  <!-- Togo stylisé en points (forme allongée nord-sud) -->
  <g fill="#ffffff" opacity="0.5">
    <circle cx="1090" cy="120" r="11"/><circle cx="1160" cy="112" r="11"/><circle cx="1230" cy="122" r="11"/>
    <circle cx="1100" cy="192" r="11"/><circle cx="1170" cy="184" r="11"/><circle cx="1240" cy="194" r="11"/>
    <circle cx="1116" cy="264" r="11"/><circle cx="1186" cy="256" r="11"/><circle cx="1250" cy="268" r="11"/>
    <circle cx="1128" cy="336" r="11"/><circle cx="1196" cy="328" r="11"/><circle cx="1258" cy="340" r="11"/>
    <circle cx="1138" cy="408" r="11"/><circle cx="1206" cy="400" r="11"/><circle cx="1266" cy="412" r="11"/>
    <circle cx="1146" cy="480" r="11"/><circle cx="1214" cy="472" r="11"/><circle cx="1272" cy="484" r="11"/>
    <circle cx="1152" cy="552" r="11"/><circle cx="1220" cy="544" r="11"/><circle cx="1278" cy="556" r="11"/>
    <circle cx="1158" cy="624" r="11"/><circle cx="1226" cy="616" r="11"/><circle cx="1284" cy="628" r="11"/>
    <circle cx="1170" cy="696" r="11"/><circle cx="1236" cy="690" r="11"/><circle cx="1290" cy="700" r="11"/>
    <circle cx="1196" cy="762" r="11"/><circle cx="1256" cy="758" r="11"/>
  </g>
  <!-- Points chauds au nord (Savanes) -->
  <g>
    <circle cx="1160" cy="112" r="26" fill="none" stroke="#EF3340" stroke-width="4" opacity="0.55"/>
    <circle cx="1160" cy="112" r="15" fill="#EF3340"/>
    <circle cx="1100" cy="192" r="22" fill="none" stroke="#EF3340" stroke-width="4" opacity="0.45"/>
    <circle cx="1100" cy="192" r="13" fill="#EF3340"/>
  </g>
  <!-- Projets COSO (or) -->
  <g fill="#FFCE00">
    <circle cx="1240" cy="194" r="13"/><circle cx="1186" cy="256" r="13"/><circle cx="1196" cy="328" r="13"/>
    <circle cx="1196" cy="762" r="13"/>
  </g>

  <!-- Repères cartographiques décoratifs -->
  <g stroke="#ffffff" stroke-width="2" opacity="0.07" fill="none">
    <circle cx="330" cy="240" r="120"/>
    <circle cx="330" cy="240" r="200"/>
    <circle cx="330" cy="240" r="280"/>
    <line x1="330" y1="0" x2="330" y2="560"/>
    <line x1="30" y1="240" x2="640" y2="240"/>
  </g>
</svg>
